<svg width="369" height="326" viewBox="0 0 369 326" fill="none" xmlns="http://www.w3.org/2000/svg">
<path d="M167 0H7C3.13401 0 0 3.13401 0 7V39C0 42.866 3.13401 46 7 46H167C170.866 46 174 42.866 174 39V7C174 3.13401 170.866 0 167 0Z" fill="#828282" fill-opacity="0.1"/>
<path fill-rule="evenodd" clip-rule="evenodd" d="M25.5 18.25C25.5 17.6533 25.7371 17.081 26.159 16.659C26.581 16.2371 27.1533 16 27.75 16H41.25C41.5455 15.9999 41.8381 16.058 42.1112 16.171C42.3842 16.284 42.6323 16.4498 42.8413 16.6587C43.0502 16.8677 43.216 17.1158 43.329 17.3888C43.442 17.6618 43.5001 17.9545 43.5 18.25V27.75C43.5001 28.0455 43.442 28.3382 43.329 28.6112C43.216 28.8842 43.0502 29.1323 42.8413 29.3413C42.6323 29.5502 42.3842 29.716 42.1112 29.829C41.8381 29.942 41.5455 30.0001 41.25 30H27.75C27.1533 30 26.581 29.7629 26.159 29.341C25.7371 28.919 25.5 28.3467 25.5 27.75V18.25ZM27 24.06V27.75C27 28.164 27.336 28.5 27.75 28.5H41.25C41.4489 28.5 41.6397 28.421 41.7803 28.2803C41.921 28.1397 42 27.9489 42 27.75V25.06L39.78 22.841C39.6394 22.7005 39.4488 22.6217 39.25 22.6217C39.0512 22.6217 38.8606 22.7005 38.72 22.841L36.81 24.75L37.28 25.22C37.3537 25.2887 37.4128 25.3715 37.4538 25.4635C37.4948 25.5555 37.5168 25.6548 37.5186 25.7555C37.5204 25.8562 37.5018 25.9562 37.4641 26.0496C37.4264 26.143 37.3703 26.2278 37.299 26.299C37.2278 26.3703 37.143 26.4264 37.0496 26.4641C36.9562 26.5018 36.8562 26.5204 36.7555 26.5186C36.6548 26.5168 36.5555 26.4948 36.4635 26.4538C36.3715 26.4128 36.2887 26.3537 36.22 26.28L31.03 21.091C30.8894 20.9505 30.6988 20.8717 30.5 20.8717C30.3012 20.8717 30.1106 20.9505 29.97 21.091L27 24.06ZM36.5 20C36.5 20.2652 36.3946 20.5196 36.2071 20.7071C36.0196 20.8946 35.7652 21 35.5 21C35.2348 21 34.9804 20.8946 34.7929 20.7071C34.6054 20.5196 34.5 20.2652 34.5 20C34.5 19.7348 34.6054 19.4804 34.7929 19.2929C34.9804 19.1054 35.2348 19 35.5 19C35.7652 19 36.0196 19.1054 36.2071 19.2929C36.3946 19.4804 36.5 19.7348 36.5 20Z" fill="#828282"/>
<path d="M49.88 23.272C49.88 19.72 51.624 17.32 54.472 17.32C57.304 17.32 59.048 19.72 59.048 23.272C59.048 26.84 57.336 29.208 54.472 29.208C51.592 29.208 49.88 26.84 49.88 23.272ZM51.016 23.272C51.016 26.248 52.28 28.168 54.472 28.168C56.664 28.168 57.928 26.248 57.928 23.272C57.928 20.28 56.664 18.376 54.472 18.376C52.28 18.376 51.016 20.28 51.016 23.272ZM61.378 29H60.082L62.85 25.128L60.098 21.256H61.394L63.586 24.36L65.762 21.256H67.042L64.29 25.144L67.026 29H65.714L63.538 25.896L61.378 29ZM74.675 25.128L71.811 29H70.467L73.475 25C72.9952 25.2636 72.4543 25.396 71.907 25.384C69.523 25.384 67.939 23.64 67.939 21.4C67.939 19.064 69.715 17.336 72.003 17.336C74.307 17.336 76.115 19.112 76.115 21.416C76.115 22.744 75.763 23.672 74.675 25.128ZM74.963 21.4C74.963 19.656 73.747 18.392 72.003 18.392C70.307 18.392 69.091 19.656 69.091 21.4C69.091 23.128 70.307 24.376 72.003 24.376C73.747 24.376 74.963 23.128 74.963 21.4ZM78.956 29H77.996V17.336H79.1V22.76C79.644 21.624 80.7 21.048 82.012 21.048C84.268 21.048 85.58 22.808 85.58 25.144C85.58 27.464 84.236 29.192 81.98 29.192C80.684 29.192 79.612 28.616 79.068 27.416L78.956 29ZM79.116 25.112C79.116 26.904 80.108 28.184 81.804 28.184C83.484 28.184 84.46 26.904 84.46 25.112C84.46 23.336 83.484 22.04 81.804 22.04C80.108 22.04 79.116 23.336 79.116 25.112ZM86.332 17.544H94.124V18.6L89.612 29H88.428L92.956 18.6H86.332V17.544ZM94.538 21.256H95.722V19.752C95.722 18.008 96.682 17.336 97.866 17.336C98.138 17.336 98.458 17.352 98.714 17.4V18.344H98.058C97.082 18.344 96.826 18.84 96.826 19.752V21.256H98.65V22.184H96.826V29H95.722V22.184H94.538V21.256ZM106.472 25.128L103.608 29H102.264L105.272 25C104.792 25.2636 104.251 25.396 103.704 25.384C101.32 25.384 99.736 23.64 99.736 21.4C99.736 19.064 101.512 17.336 103.8 17.336C106.104 17.336 107.912 19.112 107.912 21.416C107.912 22.744 107.56 23.672 106.472 25.128ZM106.76 21.4C106.76 19.656 105.544 18.392 103.8 18.392C102.104 18.392 100.888 19.656 100.888 21.4C100.888 23.128 102.104 24.376 103.8 24.376C105.544 24.376 106.76 23.128 106.76 21.4ZM116.881 29H109.329V28.088L112.993 24.888C115.105 23.048 115.649 22.248 115.649 20.888C115.649 19.336 114.721 18.392 113.201 18.392C111.617 18.392 110.577 19.544 110.529 21.32H109.377C109.441 18.92 110.961 17.336 113.217 17.336C115.377 17.336 116.817 18.728 116.817 20.824C116.817 22.488 116.065 23.592 113.777 25.592L111.105 27.928H116.881V29ZM119.706 29H118.746V17.336H119.85V22.76C120.394 21.624 121.45 21.048 122.762 21.048C125.018 21.048 126.33 22.808 126.33 25.144C126.33 27.464 124.986 29.192 122.73 29.192C121.434 29.192 120.362 28.616 119.818 27.416L119.706 29ZM119.866 25.112C119.866 26.904 120.858 28.184 122.554 28.184C124.234 28.184 125.21 26.904 125.21 25.112C125.21 23.336 124.234 22.04 122.554 22.04C120.858 22.04 119.866 23.336 119.866 25.112ZM130.986 22.856H130.074V22.056L133.61 18.568H128.122V17.544H135.066V18.472L131.641 21.88C133.786 21.992 135.322 23.352 135.322 25.432C135.322 27.704 133.658 29.192 131.338 29.192C129.082 29.192 127.562 27.8 127.562 25.512H128.698C128.698 27.16 129.722 28.152 131.338 28.152C133.05 28.152 134.154 27.064 134.154 25.4C134.154 23.832 133.034 22.856 130.986 22.856ZM137.737 29.176C137.193 29.176 136.729 28.728 136.729 28.2C136.729 27.656 137.193 27.192 137.737 27.192C138.281 27.192 138.745 27.656 138.745 28.2C138.745 28.728 138.281 29.176 137.737 29.176ZM141.924 29.176C141.38 29.176 140.916 28.728 140.916 28.2C140.916 27.656 141.38 27.192 141.924 27.192C142.468 27.192 142.932 27.656 142.932 28.2C142.932 28.728 142.468 29.176 141.924 29.176ZM146.112 29.176C145.568 29.176 145.104 28.728 145.104 28.2C145.104 27.656 145.568 27.192 146.112 27.192C146.656 27.192 147.12 27.656 147.12 28.2C147.12 28.728 146.656 29.176 146.112 29.176Z" fill="#828282"/>
<g opacity="0.8">
<path d="M167 56H7C3.13401 56 0 59.134 0 63V95C0 98.866 3.13401 102 7 102H167C170.866 102 174 98.866 174 95V63C174 59.134 170.866 56 167 56Z" fill="#828282" fill-opacity="0.1"/>
<path fill-rule="evenodd" clip-rule="evenodd" d="M29.5 71C29.1022 71 28.7206 71.158 28.4393 71.4393C28.158 71.7206 28 72.1022 28 72.5V85.5C28.0005 85.8977 28.1587 86.2789 28.4399 86.5601C28.7211 86.8413 29.1023 86.9995 29.5 87H40.5C40.8977 86.9997 41.2791 86.8416 41.5604 86.5604C41.8416 86.2791 41.9997 85.8977 42 85.5V76.621C41.9996 76.2233 41.8414 75.842 41.56 75.561L37.44 71.439C37.3005 71.2996 37.1349 71.1891 36.9527 71.1138C36.7705 71.0384 36.5752 70.9998 36.378 71H29.5ZM31.75 79.5C31.6015 79.4997 31.4563 79.5434 31.3328 79.6258C31.2093 79.7081 31.113 79.8253 31.0562 79.9625C30.9994 80.0996 30.9847 80.2506 31.0138 80.3961C31.043 80.5417 31.1148 80.6753 31.22 80.78C31.36 80.921 31.551 81 31.75 81H38.25C38.3985 81.0003 38.5437 80.9566 38.6672 80.8742C38.7907 80.7919 38.887 80.6747 38.9438 80.5375C39.0006 80.4004 39.0153 80.2494 38.9862 80.1039C38.957 79.9583 38.8852 79.8247 38.78 79.72C38.7105 79.6503 38.6278 79.595 38.5369 79.5572C38.446 79.5195 38.3485 79.5 38.25 79.5H31.75ZM31.75 82.5C31.6015 82.4997 31.4563 82.5434 31.3328 82.6258C31.2093 82.7081 31.113 82.8253 31.0562 82.9625C30.9994 83.0996 30.9847 83.2506 31.0138 83.3961C31.043 83.5417 31.1148 83.6753 31.22 83.78C31.36 83.921 31.551 84 31.75 84H38.25C38.3985 84.0003 38.5437 83.9566 38.6672 83.8742C38.7907 83.7919 38.887 83.6747 38.9438 83.5375C39.0006 83.4004 39.0153 83.2494 38.9862 83.1039C38.957 82.9583 38.8852 82.8247 38.78 82.72C38.7105 82.6503 38.6278 82.595 38.5369 82.5572C38.446 82.5195 38.3485 82.5 38.25 82.5H31.75Z" fill="#828282"/>
<path d="M49.88 79.272C49.88 75.72 51.624 73.32 54.472 73.32C57.304 73.32 59.048 75.72 59.048 79.272C59.048 82.84 57.336 85.208 54.472 85.208C51.592 85.208 49.88 82.84 49.88 79.272ZM51.016 79.272C51.016 82.248 52.28 84.168 54.472 84.168C56.664 84.168 57.928 82.248 57.928 79.272C57.928 76.28 56.664 74.376 54.472 74.376C52.28 74.376 51.016 76.28 51.016 79.272ZM61.378 85H60.082L62.85 81.128L60.098 77.256H61.394L63.586 80.36L65.762 77.256H67.042L64.29 81.144L67.026 85H65.714L63.538 81.896L61.378 85ZM68.019 81.88C68.019 80.472 68.867 79.352 70.227 78.888C69.075 78.424 68.419 77.48 68.419 76.296C68.419 74.536 69.923 73.336 72.115 73.336C74.291 73.336 75.747 74.536 75.747 76.312C75.747 77.512 75.107 78.456 73.971 78.888C75.299 79.304 76.179 80.456 76.179 81.896C76.179 83.848 74.531 85.192 72.099 85.192C69.667 85.192 68.019 83.848 68.019 81.88ZM69.507 76.328C69.507 77.592 70.531 78.44 72.099 78.44C73.651 78.44 74.659 77.624 74.659 76.36C74.659 75.128 73.651 74.36 72.099 74.36C70.531 74.36 69.507 75.128 69.507 76.328ZM69.155 81.784C69.155 83.208 70.339 84.152 72.115 84.152C73.859 84.152 75.043 83.208 75.043 81.784C75.043 80.376 73.891 79.464 72.083 79.464C70.307 79.464 69.155 80.376 69.155 81.784ZM80.376 85.192C78.728 85.192 77.752 84.264 77.752 82.904C77.752 81.48 78.84 80.584 80.648 80.44L83.208 80.232V79.976C83.208 78.456 82.296 77.976 81.16 77.976C79.816 77.976 79.016 78.584 79.016 79.624H78.008C78.008 78.056 79.288 77.048 81.192 77.048C82.984 77.048 84.296 77.944 84.296 79.992V85H83.368L83.224 83.64C82.744 84.616 81.688 85.192 80.376 85.192ZM80.632 84.296C82.264 84.296 83.208 83.16 83.208 81.48V81.064L80.92 81.24C79.464 81.368 78.872 82.008 78.872 82.872C78.872 83.816 79.576 84.296 80.632 84.296ZM85.503 73.544H93.295V74.6L88.783 85H87.599L92.127 74.6H85.503V73.544ZM93.71 77.256H94.894V75.752C94.894 74.008 95.854 73.336 97.038 73.336C97.31 73.336 97.63 73.352 97.886 73.4V74.344H97.23C96.254 74.344 95.998 74.84 95.998 75.752V77.256H97.822V78.184H95.998V85H94.894V78.184H93.71V77.256ZM98.988 81.88C98.988 80.472 99.836 79.352 101.196 78.888C100.044 78.424 99.388 77.48 99.388 76.296C99.388 74.536 100.892 73.336 103.084 73.336C105.26 73.336 106.716 74.536 106.716 76.312C106.716 77.512 106.076 78.456 104.94 78.888C106.268 79.304 107.148 80.456 107.148 81.896C107.148 83.848 105.5 85.192 103.068 85.192C100.636 85.192 98.988 83.848 98.988 81.88ZM100.476 76.328C100.476 77.592 101.5 78.44 103.068 78.44C104.62 78.44 105.628 77.624 105.628 76.36C105.628 75.128 104.62 74.36 103.068 74.36C101.5 74.36 100.476 75.128 100.476 76.328ZM100.124 81.784C100.124 83.208 101.308 84.152 103.084 84.152C104.828 84.152 106.012 83.208 106.012 81.784C106.012 80.376 104.86 79.464 103.052 79.464C101.276 79.464 100.124 80.376 100.124 81.784ZM112.048 78.856H111.136V78.056L114.672 74.568H109.184V73.544H116.128V74.472L112.704 77.88C114.848 77.992 116.384 79.352 116.384 81.432C116.384 83.704 114.72 85.192 112.4 85.192C110.144 85.192 108.624 83.8 108.624 81.512H109.76C109.76 83.16 110.784 84.152 112.4 84.152C114.112 84.152 115.216 83.064 115.216 81.4C115.216 79.832 114.096 78.856 112.048 78.856ZM119.206 85H118.246V73.336H119.35V78.76C119.894 77.624 120.95 77.048 122.262 77.048C124.518 77.048 125.83 78.808 125.83 81.144C125.83 83.464 124.486 85.192 122.23 85.192C120.934 85.192 119.862 84.616 119.318 83.416L119.206 85ZM119.366 81.112C119.366 82.904 120.358 84.184 122.054 84.184C123.734 84.184 124.71 82.904 124.71 81.112C124.71 79.336 123.734 78.04 122.054 78.04C120.358 78.04 119.366 79.336 119.366 81.112ZM135.558 82.568H134.214V85H133.094V82.568H127.078V81.544L132.678 73.544H134.214V81.544H135.558V82.568ZM128.326 81.544H133.094V74.728L128.326 81.544ZM138.143 85.176C137.599 85.176 137.135 84.728 137.135 84.2C137.135 83.656 137.599 83.192 138.143 83.192C138.687 83.192 139.151 83.656 139.151 84.2C139.151 84.728 138.687 85.176 138.143 85.176ZM142.33 85.176C141.786 85.176 141.322 84.728 141.322 84.2C141.322 83.656 141.786 83.192 142.33 83.192C142.874 83.192 143.338 83.656 143.338 84.2C143.338 84.728 142.874 85.176 142.33 85.176ZM146.518 85.176C145.974 85.176 145.51 84.728 145.51 84.2C145.51 83.656 145.974 83.192 146.518 83.192C147.062 83.192 147.526 83.656 147.526 84.2C147.526 84.728 147.062 85.176 146.518 85.176Z" fill="#828282"/>
</g>
<g opacity="0.7">
<path d="M167 112H7C3.13401 112 0 115.134 0 119V151C0 154.866 3.13401 158 7 158H167C170.866 158 174 154.866 174 151V119C174 115.134 170.866 112 167 112Z" fill="#828282" fill-opacity="0.1"/>
<path fill-rule="evenodd" clip-rule="evenodd" d="M27 130.25C27 129.653 27.2371 129.081 27.659 128.659C28.081 128.237 28.6533 128 29.25 128H42.75C43.3467 128 43.919 128.237 44.341 128.659C44.7629 129.081 45 129.653 45 130.25V139.75C44.9997 140.347 44.7626 140.919 44.3407 141.341C43.9188 141.763 43.3467 142 42.75 142H29.25C28.6533 142 28.081 141.763 27.659 141.341C27.2371 140.919 27 140.347 27 139.75V130.25ZM31.026 133.129C31.356 132.65 31.72 132.5 32 132.5C32.28 132.5 32.643 132.65 32.974 133.129C33.0581 133.251 33.1767 133.346 33.3148 133.4C33.4529 133.455 33.604 133.467 33.749 133.435C33.8457 133.415 33.9373 133.376 34.0186 133.32C34.0998 133.264 34.169 133.192 34.222 133.109C34.302 132.984 34.3433 132.838 34.3408 132.69C34.3383 132.542 34.2921 132.397 34.208 132.275C33.66 131.484 32.873 131 32 131C31.127 131 30.34 131.484 29.792 132.275C29.25 133.059 29 134.048 29 135C29 135.952 29.25 136.941 29.792 137.725C30.34 138.516 31.127 139 32 139C32.873 139 33.66 138.516 34.208 137.725C34.2948 137.6 34.3413 137.451 34.341 137.298V135C34.3413 134.901 34.322 134.804 34.2844 134.713C34.2468 134.622 34.1916 134.539 34.1219 134.469C34.0522 134.399 33.9694 134.344 33.8783 134.307C33.7872 134.269 33.6896 134.25 33.591 134.25H32.25C32.1015 134.25 31.9563 134.293 31.8328 134.376C31.7093 134.458 31.613 134.575 31.5562 134.712C31.4994 134.85 31.4847 135.001 31.5138 135.146C31.543 135.292 31.6148 135.425 31.72 135.53C31.86 135.671 32.051 135.75 32.25 135.75H32.841V137.045C32.548 137.387 32.241 137.5 32 137.5C31.721 137.5 31.357 137.35 31.026 136.871C30.69 136.386 30.5 135.711 30.5 135C30.5 134.289 30.69 133.614 31.026 133.129ZM36.75 131C36.8485 131 36.9461 131.019 37.0372 131.057C37.1282 131.094 37.211 131.15 37.2806 131.219C37.3503 131.289 37.4055 131.372 37.4432 131.463C37.4808 131.554 37.5001 131.651 37.5 131.75V138.25C37.5003 138.349 37.481 138.446 37.4435 138.537C37.4059 138.628 37.3506 138.711 37.2809 138.781C37.2112 138.851 37.1284 138.906 37.0373 138.943C36.9462 138.981 36.8486 139 36.75 139C36.6515 139 36.5539 138.981 36.4628 138.943C36.3718 138.906 36.289 138.85 36.2194 138.781C36.1497 138.711 36.0945 138.628 36.0568 138.537C36.0192 138.446 35.9999 138.349 36 138.25V131.75C35.9997 131.651 36.019 131.554 36.0565 131.463C36.0941 131.372 36.1494 131.289 36.2191 131.219C36.2888 131.149 36.3716 131.094 36.4627 131.057C36.5538 131.019 36.6514 131 36.75 131ZM39.75 131H42.25C42.3985 131 42.5437 131.043 42.6672 131.126C42.7907 131.208 42.887 131.325 42.9438 131.462C43.0006 131.6 43.0153 131.751 42.9862 131.896C42.957 132.042 42.8852 132.175 42.78 132.28C42.7105 132.35 42.6278 132.405 42.5369 132.443C42.446 132.481 42.3485 132.5 42.25 132.5H40.5V134.25H41.25C41.3985 134.25 41.5437 134.293 41.6672 134.376C41.7907 134.458 41.887 134.575 41.9438 134.712C42.0006 134.85 42.0153 135.001 41.9862 135.146C41.957 135.292 41.8852 135.425 41.78 135.53C41.7105 135.6 41.6278 135.655 41.5369 135.693C41.446 135.731 41.3485 135.75 41.25 135.75H40.5V138.25C40.5003 138.349 40.481 138.446 40.4435 138.537C40.4059 138.628 40.3506 138.711 40.2809 138.781C40.2112 138.851 40.1284 138.906 40.0373 138.943C39.9462 138.981 39.8486 139 39.75 139C39.6515 139 39.5539 138.981 39.4628 138.943C39.3718 138.906 39.289 138.85 39.2194 138.781C39.1497 138.711 39.0945 138.628 39.0568 138.537C39.0192 138.446 38.9999 138.349 39 138.25V131.75C38.9997 131.651 39.019 131.554 39.0565 131.463C39.0941 131.372 39.1494 131.289 39.2191 131.219C39.2888 131.149 39.3716 131.094 39.4627 131.057C39.5538 131.019 39.6514 131 39.75 131Z" fill="#828282"/>
<path d="M50.38 135.272C50.38 131.72 52.124 129.32 54.972 129.32C57.804 129.32 59.548 131.72 59.548 135.272C59.548 138.84 57.836 141.208 54.972 141.208C52.092 141.208 50.38 138.84 50.38 135.272ZM51.516 135.272C51.516 138.248 52.78 140.168 54.972 140.168C57.164 140.168 58.428 138.248 58.428 135.272C58.428 132.28 57.164 130.376 54.972 130.376C52.78 130.376 51.516 132.28 51.516 135.272ZM61.878 141H60.582L63.35 137.128L60.598 133.256H61.894L64.086 136.36L66.262 133.256H67.542L64.79 137.144L67.526 141H66.214L64.038 137.896L61.878 141ZM71.751 134.856H70.839V134.056L74.375 130.568H68.887V129.544H75.831V130.472L72.407 133.88C74.551 133.992 76.087 135.352 76.087 137.432C76.087 139.704 74.423 141.192 72.103 141.192C69.847 141.192 68.327 139.8 68.327 137.512H69.463C69.463 139.16 70.487 140.152 72.103 140.152C73.815 140.152 74.919 139.064 74.919 137.4C74.919 135.832 73.799 134.856 71.751 134.856ZM78.909 141H77.949V129.336H79.053V134.76C79.597 133.624 80.653 133.048 81.965 133.048C84.221 133.048 85.533 134.808 85.533 137.144C85.533 139.464 84.189 141.192 81.933 141.192C80.637 141.192 79.565 140.616 79.021 139.416L78.909 141ZM79.069 137.112C79.069 138.904 80.061 140.184 81.757 140.184C83.437 140.184 84.413 138.904 84.413 137.112C84.413 135.336 83.437 134.04 81.757 134.04C80.061 134.04 79.069 135.336 79.069 137.112ZM94.413 141H86.861V140.088L90.525 136.888C92.637 135.048 93.181 134.248 93.181 132.888C93.181 131.336 92.253 130.392 90.733 130.392C89.149 130.392 88.109 131.544 88.061 133.32H86.909C86.973 130.92 88.493 129.336 90.749 129.336C92.909 129.336 94.349 130.728 94.349 132.824C94.349 134.488 93.597 135.592 91.309 137.592L88.637 139.928H94.413V141ZM95.413 133.256H96.597V131.752C96.597 130.008 97.557 129.336 98.741 129.336C99.013 129.336 99.333 129.352 99.589 129.4V130.344H98.933C97.957 130.344 97.701 130.84 97.701 131.752V133.256H99.525V134.184H97.701V141H96.597V134.184H95.413V133.256ZM107.347 137.128L104.483 141H103.139L106.147 137C105.667 137.264 105.126 137.396 104.579 137.384C102.195 137.384 100.611 135.64 100.611 133.4C100.611 131.064 102.387 129.336 104.675 129.336C106.979 129.336 108.787 131.112 108.787 133.416C108.787 134.744 108.435 135.672 107.347 137.128ZM107.635 133.4C107.635 131.656 106.419 130.392 104.675 130.392C102.979 130.392 101.763 131.656 101.763 133.4C101.763 135.128 102.979 136.376 104.675 136.376C106.419 136.376 107.635 135.128 107.635 133.4ZM117.756 141H110.204V140.088L113.868 136.888C115.98 135.048 116.524 134.248 116.524 132.888C116.524 131.336 115.596 130.392 114.076 130.392C112.492 130.392 111.452 131.544 111.404 133.32H110.252C110.316 130.92 111.836 129.336 114.092 129.336C116.252 129.336 117.692 130.728 117.692 132.824C117.692 134.488 116.94 135.592 114.652 137.592L111.98 139.928H117.756V141ZM119.077 137.144C119.077 134.712 120.565 133.048 122.821 133.048C124.613 133.048 125.925 134.088 126.229 135.688H125.125C124.837 134.616 123.909 134.024 122.837 134.024C121.269 134.024 120.165 135.224 120.165 137.128C120.165 138.968 121.189 140.2 122.757 140.2C123.909 140.2 124.837 139.56 125.141 138.568H126.261C125.893 140.152 124.517 141.192 122.757 141.192C120.565 141.192 119.077 139.576 119.077 137.144ZM135.053 141H127.501V140.088L131.165 136.888C133.277 135.048 133.821 134.248 133.821 132.888C133.821 131.336 132.893 130.392 131.373 130.392C129.789 130.392 128.749 131.544 128.701 133.32H127.549C127.613 130.92 129.133 129.336 131.389 129.336C133.549 129.336 134.989 130.728 134.989 132.824C134.989 134.488 134.237 135.592 131.949 137.592L129.277 139.928H135.053V141ZM137.924 141.176C137.38 141.176 136.916 140.728 136.916 140.2C136.916 139.656 137.38 139.192 137.924 139.192C138.468 139.192 138.932 139.656 138.932 140.2C138.932 140.728 138.468 141.176 137.924 141.176ZM142.112 141.176C141.568 141.176 141.104 140.728 141.104 140.2C141.104 139.656 141.568 139.192 142.112 139.192C142.656 139.192 143.12 139.656 143.12 140.2C143.12 140.728 142.656 141.176 142.112 141.176ZM146.299 141.176C145.755 141.176 145.291 140.728 145.291 140.2C145.291 139.656 145.755 139.192 146.299 139.192C146.843 139.192 147.307 139.656 147.307 140.2C147.307 140.728 146.843 141.176 146.299 141.176Z" fill="#828282"/>
</g>
<g opacity="0.6">
<path d="M167 168H7C3.13401 168 0 171.134 0 175V207C0 210.866 3.13401 214 7 214H167C170.866 214 174 210.866 174 207V175C174 171.134 170.866 168 167 168Z" fill="#828282" fill-opacity="0.1"/>
<path d="M37 190C36.8686 190 36.7385 189.975 36.617 189.924C36.4956 189.874 36.3852 189.801 36.2923 189.708C36.1994 189.615 36.1257 189.504 36.0756 189.383C36.0254 189.262 35.9997 189.131 36 189V184C36 183.448 36.45 182.993 36.997 183.07C38.4941 183.285 39.8811 183.98 40.9506 185.049C42.0201 186.119 42.7145 187.506 42.93 189.003C43.008 189.55 42.552 190 42 190H37Z" fill="#828282"/>
<path d="M33.003 185.07C33.55 184.994 34 185.449 34 186V191C34 191.265 34.1054 191.52 34.2929 191.707C34.4804 191.895 34.7348 192 35 192H40C40.552 192 41.008 192.45 40.93 192.997C40.6765 194.748 39.7695 196.338 38.3913 197.448C37.0131 198.558 35.266 199.105 33.501 198.979C31.736 198.853 30.0843 198.063 28.8782 196.768C27.6721 195.473 27.001 193.77 27 192C27.0001 190.316 27.607 188.689 28.7095 187.416C29.8121 186.143 31.3363 185.31 33.003 185.07ZM49.88 191.272C49.88 187.72 51.624 185.32 54.472 185.32C57.304 185.32 59.048 187.72 59.048 191.272C59.048 194.84 57.336 197.208 54.472 197.208C51.592 197.208 49.88 194.84 49.88 191.272ZM51.016 191.272C51.016 194.248 52.28 196.168 54.472 196.168C56.664 196.168 57.928 194.248 57.928 191.272C57.928 188.28 56.664 186.376 54.472 186.376C52.28 186.376 51.016 188.28 51.016 191.272ZM61.378 197H60.082L62.85 193.128L60.098 189.256H61.394L63.586 192.36L65.762 189.256H67.042L64.29 193.144L67.026 197H65.714L63.538 193.896L61.378 197ZM76.323 194.568H74.979V197H73.859V194.568H67.843V193.544L73.443 185.544H74.979V193.544H76.323V194.568ZM69.091 193.544H73.859V186.728L69.091 193.544ZM80.61 197.192C78.962 197.192 77.986 196.264 77.986 194.904C77.986 193.48 79.074 192.584 80.882 192.44L83.442 192.232V191.976C83.442 190.456 82.53 189.976 81.394 189.976C80.05 189.976 79.25 190.584 79.25 191.624H78.242C78.242 190.056 79.522 189.048 81.426 189.048C83.218 189.048 84.53 189.944 84.53 191.992V197H83.602L83.458 195.64C82.978 196.616 81.922 197.192 80.61 197.192ZM80.866 196.296C82.498 196.296 83.442 195.16 83.442 193.48V193.064L81.154 193.24C79.698 193.368 79.106 194.008 79.106 194.872C79.106 195.816 79.81 196.296 80.866 196.296ZM85.738 185.544H93.53V186.6L89.018 197H87.834L92.362 186.6H85.738V185.544ZM95.768 197H94.808V185.336H95.912V190.76C96.456 189.624 97.512 189.048 98.824 189.048C101.08 189.048 102.392 190.808 102.392 193.144C102.392 195.464 101.048 197.192 98.792 197.192C97.496 197.192 96.424 196.616 95.88 195.416L95.768 197ZM95.928 193.112C95.928 194.904 96.92 196.184 98.616 196.184C100.296 196.184 101.272 194.904 101.272 193.112C101.272 191.336 100.296 190.04 98.616 190.04C96.92 190.04 95.928 191.336 95.928 193.112ZM110.472 193.128L107.608 197H106.264L109.272 193C108.792 193.264 108.251 193.396 107.704 193.384C105.32 193.384 103.736 191.64 103.736 189.4C103.736 187.064 105.512 185.336 107.8 185.336C110.104 185.336 111.912 187.112 111.912 189.416C111.912 190.744 111.56 191.672 110.472 193.128ZM110.76 189.4C110.76 187.656 109.544 186.392 107.8 186.392C106.104 186.392 104.888 187.656 104.888 189.4C104.888 191.128 106.104 192.376 107.8 192.376C109.544 192.376 110.76 191.128 110.76 189.4ZM115.49 186.584H113.154V185.544H116.594V197H115.49V186.584ZM120.049 197H119.09V185.336H120.194V190.76C120.738 189.624 121.794 189.048 123.106 189.048C125.362 189.048 126.674 190.808 126.674 193.144C126.674 195.464 125.33 197.192 123.074 197.192C121.778 197.192 120.706 196.616 120.162 195.416L120.049 197ZM120.21 193.112C120.21 194.904 121.202 196.184 122.898 196.184C124.578 196.184 125.554 194.904 125.554 193.112C125.554 191.336 124.578 190.04 122.898 190.04C121.202 190.04 120.21 191.336 120.21 193.112ZM131.329 190.856H130.417V190.056L133.953 186.568H128.465V185.544H135.409V186.472L131.985 189.88C134.129 189.992 135.665 191.352 135.665 193.432C135.665 195.704 134.001 197.192 131.681 197.192C129.425 197.192 127.905 195.8 127.905 193.512H129.041C129.041 195.16 130.065 196.152 131.681 196.152C133.393 196.152 134.497 195.064 134.497 193.4C134.497 191.832 133.377 190.856 131.329 190.856ZM138.08 197.176C137.536 197.176 137.072 196.728 137.072 196.2C137.072 195.656 137.536 195.192 138.08 195.192C138.624 195.192 139.088 195.656 139.088 196.2C139.088 196.728 138.624 197.176 138.08 197.176ZM142.268 197.176C141.724 197.176 141.26 196.728 141.26 196.2C141.26 195.656 141.724 195.192 142.268 195.192C142.812 195.192 143.276 195.656 143.276 196.2C143.276 196.728 142.812 197.176 142.268 197.176ZM146.455 197.176C145.911 197.176 145.447 196.728 145.447 196.2C145.447 195.656 145.911 195.192 146.455 195.192C146.999 195.192 147.463 195.656 147.463 196.2C147.463 196.728 146.999 197.176 146.455 197.176Z" fill="#828282"/>
</g>
<g opacity="0.5">
<path d="M167 224H7C3.13401 224 0 227.134 0 231V263C0 266.866 3.13401 270 7 270H167C170.866 270 174 266.866 174 263V231C174 227.134 170.866 224 167 224Z" fill="#828282" fill-opacity="0.1"/>
<path fill-rule="evenodd" clip-rule="evenodd" d="M25.99 242.24C25.991 241.944 26.0504 241.652 26.1645 241.379C26.2787 241.107 26.4456 240.859 26.6555 240.651C26.8654 240.443 27.1143 240.279 27.3879 240.167C27.6615 240.055 27.9544 239.998 28.25 240H41.75C42.3466 240 42.9188 240.237 43.3407 240.659C43.7626 241.081 43.9997 241.653 44 242.25L44.01 251.75C44.0092 252.346 43.7719 252.918 43.3501 253.34C42.9283 253.762 42.3565 253.999 41.76 254H28.26C27.6614 253.997 27.0881 253.758 26.6648 253.335C26.2416 252.912 26.0026 252.339 26 251.74L25.99 242.24ZM34.25 251.76V251.135C34.2503 251.036 34.231 250.939 34.1934 250.848C34.1558 250.757 34.1006 250.674 34.0309 250.604C33.9612 250.534 33.8784 250.479 33.7873 250.442C33.6962 250.404 33.5986 250.385 33.5 250.385H28.25C28.1515 250.385 28.0539 250.404 27.9628 250.442C27.8718 250.479 27.789 250.535 27.7194 250.604C27.6497 250.674 27.5945 250.757 27.5568 250.848C27.5192 250.939 27.4999 251.036 27.5 251.135V251.75C27.5 252.164 27.836 252.5 28.25 252.5H33.623C33.7985 252.471 33.958 252.381 34.0729 252.246C34.1878 252.11 34.2506 251.938 34.25 251.76ZM35.75 251.76C35.7498 251.938 35.8127 252.11 35.9275 252.245C36.0424 252.381 36.2017 252.471 36.377 252.5H41.75C41.9489 252.5 42.1397 252.421 42.2803 252.28C42.421 252.14 42.5 251.949 42.5 251.75V251.135C42.5003 251.036 42.481 250.939 42.4434 250.848C42.4058 250.757 42.3506 250.674 42.2809 250.604C42.2112 250.534 42.1284 250.479 42.0373 250.442C41.9462 250.404 41.8486 250.385 41.75 250.385H36.5C36.4015 250.385 36.3039 250.404 36.2128 250.442C36.1218 250.479 36.039 250.535 35.9694 250.604C35.8997 250.674 35.8445 250.757 35.8068 250.848C35.7692 250.939 35.7499 251.036 35.75 251.135V251.76ZM42.5 248.13V247.505C42.5003 247.406 42.481 247.309 42.4434 247.218C42.4058 247.127 42.3506 247.044 42.2809 246.974C42.2112 246.904 42.1284 246.849 42.0373 246.812C41.9462 246.774 41.8486 246.755 41.75 246.755H36.5C36.4015 246.755 36.3039 246.774 36.2128 246.812C36.1218 246.849 36.039 246.905 35.9694 246.974C35.8997 247.044 35.8445 247.127 35.8068 247.218C35.7692 247.309 35.7499 247.406 35.75 247.505V248.13C35.75 248.544 36.086 248.88 36.5 248.88H41.75C41.9489 248.88 42.1397 248.801 42.2803 248.66C42.421 248.52 42.5 248.329 42.5 248.13ZM34.25 248.13V247.505C34.2503 247.406 34.231 247.309 34.1934 247.218C34.1558 247.127 34.1006 247.044 34.0309 246.974C33.9612 246.904 33.8784 246.849 33.7873 246.812C33.6962 246.774 33.5986 246.755 33.5 246.755H28.25C28.1515 246.755 28.0539 246.774 27.9628 246.812C27.8718 246.849 27.789 246.905 27.7194 246.974C27.6497 247.044 27.5945 247.127 27.5568 247.218C27.5192 247.309 27.4999 247.406 27.5 247.505V248.13C27.5 248.544 27.836 248.88 28.25 248.88H33.5C33.6989 248.88 33.8897 248.801 34.0303 248.66C34.171 248.52 34.25 248.329 34.25 248.13ZM42.5 244.5V243.875C42.5003 243.776 42.481 243.679 42.4434 243.588C42.4058 243.497 42.3506 243.414 42.2809 243.344C42.2112 243.274 42.1284 243.219 42.0373 243.182C41.9462 243.144 41.8486 243.125 41.75 243.125H36.5C36.4015 243.125 36.3039 243.144 36.2128 243.182C36.1218 243.219 36.039 243.275 35.9694 243.344C35.8997 243.414 35.8445 243.497 35.8068 243.588C35.7692 243.679 35.7499 243.776 35.75 243.875V244.5C35.75 244.914 36.086 245.25 36.5 245.25H41.75C41.9489 245.25 42.1397 245.171 42.2803 245.03C42.421 244.89 42.5 244.699 42.5 244.5ZM34.25 244.5V243.875C34.2503 243.776 34.231 243.679 34.1934 243.588C34.1558 243.497 34.1006 243.414 34.0309 243.344C33.9612 243.274 33.8784 243.219 33.7873 243.182C33.6962 243.144 33.5986 243.125 33.5 243.125H28.25C28.1515 243.125 28.0539 243.144 27.9628 243.182C27.8718 243.219 27.789 243.275 27.7194 243.344C27.6497 243.414 27.5945 243.497 27.5568 243.588C27.5192 243.679 27.4999 243.776 27.5 243.875V244.5C27.5 244.914 27.836 245.25 28.25 245.25H33.5C33.6989 245.25 33.8897 245.171 34.0303 245.03C34.171 244.89 34.25 244.699 34.25 244.5Z" fill="#828282"/>
<path d="M49.88 247.272C49.88 243.72 51.624 241.32 54.472 241.32C57.304 241.32 59.048 243.72 59.048 247.272C59.048 250.84 57.336 253.208 54.472 253.208C51.592 253.208 49.88 250.84 49.88 247.272ZM51.016 247.272C51.016 250.248 52.28 252.168 54.472 252.168C56.664 252.168 57.928 250.248 57.928 247.272C57.928 244.28 56.664 242.376 54.472 242.376C52.28 242.376 51.016 244.28 51.016 247.272ZM61.378 253H60.082L62.85 249.128L60.098 245.256H61.394L63.586 248.36L65.762 245.256H67.042L64.29 249.144L67.026 253H65.714L63.538 249.896L61.378 253ZM71.843 253.192C69.539 253.192 68.067 251.752 68.067 249.496H69.219C69.219 251.144 70.227 252.136 71.859 252.136C73.587 252.136 74.707 250.984 74.707 249.288C74.707 247.688 73.667 246.424 71.859 246.424C70.803 246.424 69.843 246.904 69.219 247.592L68.307 247.304L69.683 241.544H75.219V242.6H70.515L69.651 246.2C70.291 245.688 71.123 245.4 72.019 245.4C74.403 245.4 75.875 247.112 75.875 249.256C75.875 251.56 74.243 253.192 71.843 253.192ZM77.139 249.144C77.139 246.712 78.627 245.048 80.883 245.048C82.675 245.048 83.987 246.088 84.291 247.688H83.187C82.899 246.616 81.971 246.024 80.899 246.024C79.331 246.024 78.227 247.224 78.227 249.128C78.227 250.968 79.251 252.2 80.819 252.2C81.971 252.2 82.899 251.56 83.203 250.568H84.323C83.955 252.152 82.579 253.192 80.819 253.192C78.627 253.192 77.139 251.576 77.139 249.144ZM85.66 249.88C85.66 248.472 86.508 247.352 87.868 246.888C86.716 246.424 86.06 245.48 86.06 244.296C86.06 242.536 87.564 241.336 89.756 241.336C91.932 241.336 93.388 242.536 93.388 244.312C93.388 245.512 92.748 246.456 91.612 246.888C92.94 247.304 93.82 248.456 93.82 249.896C93.82 251.848 92.172 253.192 89.74 253.192C87.308 253.192 85.66 251.848 85.66 249.88ZM87.148 244.328C87.148 245.592 88.172 246.44 89.74 246.44C91.292 246.44 92.3 245.624 92.3 244.36C92.3 243.128 91.292 242.36 89.74 242.36C88.172 242.36 87.148 243.128 87.148 244.328ZM86.796 249.784C86.796 251.208 87.98 252.152 89.756 252.152C91.5 252.152 92.684 251.208 92.684 249.784C92.684 248.376 91.532 247.464 89.724 247.464C87.948 247.464 86.796 248.376 86.796 249.784ZM94.929 245.256H96.113V243.752C96.113 242.008 97.073 241.336 98.257 241.336C98.529 241.336 98.849 241.352 99.105 241.4V242.344H98.449C97.473 242.344 97.217 242.84 97.217 243.752V245.256H99.041V246.184H97.217V253H96.113V246.184H94.929V245.256ZM100.207 249.88C100.207 248.472 101.055 247.352 102.415 246.888C101.263 246.424 100.607 245.48 100.607 244.296C100.607 242.536 102.111 241.336 104.303 241.336C106.479 241.336 107.935 242.536 107.935 244.312C107.935 245.512 107.295 246.456 106.159 246.888C107.487 247.304 108.367 248.456 108.367 249.896C108.367 251.848 106.719 253.192 104.287 253.192C101.855 253.192 100.207 251.848 100.207 249.88ZM101.695 244.328C101.695 245.592 102.719 246.44 104.287 246.44C105.839 246.44 106.847 245.624 106.847 244.36C106.847 243.128 105.839 242.36 104.287 242.36C102.719 242.36 101.695 243.128 101.695 244.328ZM101.343 249.784C101.343 251.208 102.527 252.152 104.303 252.152C106.047 252.152 107.231 251.208 107.231 249.784C107.231 248.376 106.079 247.464 104.271 247.464C102.495 247.464 101.343 248.376 101.343 249.784ZM109.796 249.144C109.796 246.712 111.284 245.048 113.54 245.048C115.332 245.048 116.644 246.088 116.948 247.688H115.844C115.556 246.616 114.628 246.024 113.556 246.024C111.988 246.024 110.884 247.224 110.884 249.128C110.884 250.968 111.908 252.2 113.476 252.2C114.628 252.2 115.556 251.56 115.86 250.568H116.98C116.612 252.152 115.236 253.192 113.476 253.192C111.284 253.192 109.796 251.576 109.796 249.144ZM119.612 253H118.652V241.336H119.756V246.76C120.3 245.624 121.356 245.048 122.668 245.048C124.924 245.048 126.236 246.808 126.236 249.144C126.236 251.464 124.892 253.192 122.636 253.192C121.34 253.192 120.268 252.616 119.724 251.416L119.612 253ZM119.772 249.112C119.772 250.904 120.764 252.184 122.46 252.184C124.14 252.184 125.116 250.904 125.116 249.112C125.116 247.336 124.14 246.04 122.46 246.04C120.764 246.04 119.772 247.336 119.772 249.112ZM129.02 245.4L131.884 241.544H133.228L130.22 245.528C130.704 245.275 131.242 245.143 131.788 245.144C134.172 245.144 135.756 246.888 135.756 249.128C135.756 251.48 133.98 253.192 131.692 253.192C129.388 253.192 127.58 251.416 127.58 249.128C127.58 247.8 127.948 246.872 129.02 245.4ZM128.748 249.144C128.748 250.888 129.948 252.152 131.692 252.152C133.388 252.152 134.604 250.888 134.604 249.144C134.604 247.4 133.388 246.152 131.692 246.152C129.948 246.152 128.748 247.4 128.748 249.144ZM138.159 253.176C137.615 253.176 137.151 252.728 137.151 252.2C137.151 251.656 137.615 251.192 138.159 251.192C138.703 251.192 139.167 251.656 139.167 252.2C139.167 252.728 138.703 253.176 138.159 253.176ZM142.346 253.176C141.802 253.176 141.338 252.728 141.338 252.2C141.338 251.656 141.802 251.192 142.346 251.192C142.89 251.192 143.354 251.656 143.354 252.2C143.354 252.728 142.89 253.176 142.346 253.176ZM146.534 253.176C145.99 253.176 145.526 252.728 145.526 252.2C145.526 251.656 145.99 251.192 146.534 251.192C147.078 251.192 147.542 251.656 147.542 252.2C147.542 252.728 147.078 253.176 146.534 253.176Z" fill="#828282"/>
</g>
<g opacity="0.4">
<path d="M167 280H7C3.13401 280 0 283.134 0 287V319C0 322.866 3.13401 326 7 326H167C170.866 326 174 322.866 174 319V287C174 283.134 170.866 280 167 280Z" fill="#828282" fill-opacity="0.1"/>
<path fill-rule="evenodd" clip-rule="evenodd" d="M36 294C39.866 294 43 295.79 43 298C43 300.21 39.866 302 36 302C32.134 302 29 300.21 29 298C29 295.79 32.134 294 36 294ZM41.694 302.13C42.158 301.866 42.604 301.547 43 301.178V303C43 305.21 39.866 307 36 307C32.134 307 29 305.21 29 303V301.178C29.3971 301.545 29.8353 301.865 30.306 302.131C31.838 303.006 33.854 303.5 36 303.5C38.146 303.5 40.162 303.006 41.694 302.13ZM29 306.179V308C29 310.21 32.134 312 36 312C39.866 312 43 310.21 43 308V306.178C42.6029 306.545 42.1647 306.865 41.694 307.131C40.162 308.006 38.146 308.5 36 308.5C33.854 308.5 31.838 308.006 30.306 307.13C29.8356 306.864 29.3974 306.545 29 306.179Z" fill="#828282"/>
<path d="M50.88 303.272C50.88 299.72 52.624 297.32 55.472 297.32C58.304 297.32 60.048 299.72 60.048 303.272C60.048 306.84 58.336 309.208 55.472 309.208C52.592 309.208 50.88 306.84 50.88 303.272ZM52.016 303.272C52.016 306.248 53.28 308.168 55.472 308.168C57.664 308.168 58.928 306.248 58.928 303.272C58.928 300.28 57.664 298.376 55.472 298.376C53.28 298.376 52.016 300.28 52.016 303.272ZM62.378 309H61.082L63.85 305.128L61.098 301.256H62.394L64.586 304.36L66.762 301.256H68.042L65.29 305.144L68.026 309H66.714L64.538 305.896L62.378 309ZM76.475 309H68.923V308.088L72.587 304.888C74.699 303.048 75.243 302.248 75.243 300.888C75.243 299.336 74.315 298.392 72.795 298.392C71.211 298.392 70.171 299.544 70.123 301.32H68.971C69.035 298.92 70.555 297.336 72.811 297.336C74.971 297.336 76.411 298.728 76.411 300.824C76.411 302.488 75.659 303.592 73.371 305.592L70.699 307.928H76.475V309ZM80.115 298.584H77.779V297.544H81.219V309H80.115V298.584ZM83.347 305.88C83.347 304.472 84.195 303.352 85.555 302.888C84.403 302.424 83.747 301.48 83.747 300.296C83.747 298.536 85.251 297.336 87.443 297.336C89.619 297.336 91.075 298.536 91.075 300.312C91.075 301.512 90.435 302.456 89.299 302.888C90.627 303.304 91.507 304.456 91.507 305.896C91.507 307.848 89.859 309.192 87.427 309.192C84.995 309.192 83.347 307.848 83.347 305.88ZM84.835 300.328C84.835 301.592 85.859 302.44 87.427 302.44C88.979 302.44 89.987 301.624 89.987 300.36C89.987 299.128 88.979 298.36 87.427 298.36C85.859 298.36 84.835 299.128 84.835 300.328ZM84.483 305.784C84.483 307.208 85.667 308.152 87.443 308.152C89.187 308.152 90.371 307.208 90.371 305.784C90.371 304.376 89.219 303.464 87.411 303.464C85.635 303.464 84.483 304.376 84.483 305.784ZM92.616 301.256H93.8V299.752C93.8 298.008 94.76 297.336 95.944 297.336C96.216 297.336 96.536 297.352 96.792 297.4V298.344H96.136C95.16 298.344 94.904 298.84 94.904 299.752V301.256H96.728V302.184H94.904V309H93.8V302.184H92.616V301.256ZM101.126 302.856H100.214V302.056L103.75 298.568H98.262V297.544H105.206V298.472L101.782 301.88C103.926 301.992 105.462 303.352 105.462 305.432C105.462 307.704 103.798 309.192 101.478 309.192C99.222 309.192 97.702 307.8 97.702 305.512H98.838C98.838 307.16 99.862 308.152 101.478 308.152C103.19 308.152 104.294 307.064 104.294 305.4C104.294 303.832 103.174 302.856 101.126 302.856ZM106.988 305.88C106.988 304.472 107.836 303.352 109.196 302.888C108.044 302.424 107.388 301.48 107.388 300.296C107.388 298.536 108.892 297.336 111.084 297.336C113.26 297.336 114.716 298.536 114.716 300.312C114.716 301.512 114.076 302.456 112.94 302.888C114.268 303.304 115.148 304.456 115.148 305.896C115.148 307.848 113.5 309.192 111.068 309.192C108.636 309.192 106.988 307.848 106.988 305.88ZM108.476 300.328C108.476 301.592 109.5 302.44 111.068 302.44C112.62 302.44 113.628 301.624 113.628 300.36C113.628 299.128 112.62 298.36 111.068 298.36C109.5 298.36 108.476 299.128 108.476 300.328ZM108.124 305.784C108.124 307.208 109.308 308.152 111.084 308.152C112.828 308.152 114.012 307.208 114.012 305.784C114.012 304.376 112.86 303.464 111.052 303.464C109.276 303.464 108.124 304.376 108.124 305.784ZM116.785 305.88C116.785 304.472 117.633 303.352 118.993 302.888C117.841 302.424 117.185 301.48 117.185 300.296C117.185 298.536 118.689 297.336 120.881 297.336C123.057 297.336 124.513 298.536 124.513 300.312C124.513 301.512 123.873 302.456 122.737 302.888C124.065 303.304 124.945 304.456 124.945 305.896C124.945 307.848 123.297 309.192 120.865 309.192C118.433 309.192 116.785 307.848 116.785 305.88ZM118.273 300.328C118.273 301.592 119.297 302.44 120.865 302.44C122.417 302.44 123.425 301.624 123.425 300.36C123.425 299.128 122.417 298.36 120.865 298.36C119.297 298.36 118.273 299.128 118.273 300.328ZM117.921 305.784C117.921 307.208 119.105 308.152 120.881 308.152C122.625 308.152 123.809 307.208 123.809 305.784C123.809 304.376 122.657 303.464 120.849 303.464C119.073 303.464 117.921 304.376 117.921 305.784ZM129.845 302.856H128.933V302.056L132.469 298.568H126.981V297.544H133.925V298.472L130.501 301.88C132.645 301.992 134.181 303.352 134.181 305.432C134.181 307.704 132.517 309.192 130.197 309.192C127.941 309.192 126.421 307.8 126.421 305.512H127.557C127.557 307.16 128.581 308.152 130.197 308.152C131.909 308.152 133.013 307.064 133.013 305.4C133.013 303.832 131.893 302.856 129.845 302.856ZM136.596 309.176C136.052 309.176 135.588 308.728 135.588 308.2C135.588 307.656 136.052 307.192 136.596 307.192C137.14 307.192 137.604 307.656 137.604 308.2C137.604 308.728 137.14 309.176 136.596 309.176ZM140.784 309.176C140.24 309.176 139.776 308.728 139.776 308.2C139.776 307.656 140.24 307.192 140.784 307.192C141.328 307.192 141.792 307.656 141.792 308.2C141.792 308.728 141.328 309.176 140.784 309.176ZM144.971 309.176C144.427 309.176 143.963 308.728 143.963 308.2C143.963 307.656 144.427 307.192 144.971 307.192C145.515 307.192 145.979 307.656 145.979 308.2C145.979 308.728 145.515 309.176 144.971 309.176Z" fill="#828282"/>
</g>
<path d="M363 33H290C286.686 33 284 35.6863 284 39V112C284 115.314 286.686 118 290 118H363C366.314 118 369 115.314 369 112V39C369 35.6863 366.314 33 363 33Z" fill="#EBEBEB"/>
<path d="M349 64.125C349 60.19 345.819 57 341.895 57H311.105C307.181 57 304 60.19 304 64.125C303.998 65.5031 304.397 66.8519 305.149 68.007C310.28 75.925 315.411 83.841 320.543 91.758C321.186 92.7527 322.069 93.5705 323.109 94.1367C324.15 94.7029 325.316 94.9995 326.5 94.9994C327.685 94.9993 328.851 94.7025 329.891 94.1361C330.932 93.5698 331.814 92.7518 332.457 91.757L347.852 68.008C348.604 66.8526 349.002 65.5034 349 64.125ZM331.829 71.844C331.829 74.79 329.439 77.188 326.5 77.188C323.561 77.188 321.171 74.79 321.171 71.844C321.171 68.897 323.561 66.5 326.5 66.5C329.439 66.5 331.829 68.897 331.829 71.844ZM310.111 64.767C309.996 64.588 309.931 64.3812 309.923 64.1684C309.915 63.9556 309.964 63.7446 310.066 63.5574C310.167 63.3703 310.317 63.214 310.5 63.1048C310.683 62.9956 310.892 62.9377 311.105 62.937H319.595C318.118 64.0871 316.951 65.5868 316.199 67.3009C315.446 69.015 315.133 70.8894 315.286 72.755L313.39 69.829L313.396 69.826L310.111 64.767ZM328.095 87.593L327.496 88.517C327.389 88.6842 327.242 88.8218 327.068 88.917C326.894 89.0123 326.699 89.0622 326.501 89.062C325.923 89.062 325.613 88.681 325.506 88.517L324.997 87.733L321.121 81.753C322.771 82.6558 324.621 83.1278 326.502 83.125C328.451 83.125 330.284 82.628 331.882 81.753L328.097 87.593H328.095ZM342.889 64.767L339.605 69.827L339.61 69.83L337.714 72.756C337.867 70.8906 337.554 69.0163 336.801 67.3025C336.049 65.5886 334.882 64.089 333.405 62.939H341.895C342.108 62.9398 342.317 62.9978 342.499 63.1069C342.682 63.216 342.832 63.3722 342.934 63.5592C343.035 63.7462 343.085 63.957 343.077 64.1697C343.069 64.3824 343.004 64.588 342.889 64.767Z" fill="#151515"/>
<path d="M283 80.4C283.265 80.4 283.52 80.2947 283.707 80.1071C283.895 79.9196 284 79.6652 284 79.4C284 79.1348 283.895 78.8804 283.707 78.6929C283.52 78.5054 283.265 78.4 283 78.4V80.4ZM197.293 23.293C197.106 23.4805 197 23.7348 197 24C197 24.2652 197.106 24.5195 197.293 24.707L203.657 31.071C203.749 31.1665 203.86 31.2427 203.982 31.2951C204.104 31.3475 204.235 31.3751 204.368 31.3763C204.5 31.3774 204.632 31.3521 204.755 31.3018C204.878 31.2515 204.989 31.1773 205.083 31.0834C205.177 30.9895 205.252 30.8779 205.302 30.755C205.352 30.6321 205.377 30.5004 205.376 30.3676C205.375 30.2348 205.347 30.1036 205.295 29.9816C205.243 29.8596 205.166 29.7493 205.071 29.657L199.414 24L205.071 18.343C205.166 18.2508 205.243 18.1404 205.295 18.0184C205.347 17.8964 205.375 17.7652 205.376 17.6324C205.377 17.4996 205.352 17.3679 205.302 17.2451C205.252 17.1222 205.177 17.0105 205.083 16.9166C204.989 16.8227 204.878 16.7485 204.755 16.6982C204.632 16.6479 204.5 16.6226 204.368 16.6238C204.235 16.6249 204.104 16.6525 203.982 16.7049C203.86 16.7573 203.749 16.8335 203.657 16.929L197.293 23.293ZM197.293 78.693C197.2 78.7858 197.126 78.896 197.076 79.0173C197.026 79.1386 197 79.2687 197 79.4C197 79.5313 197.026 79.6614 197.076 79.7827C197.126 79.904 197.2 80.0142 197.293 80.107L203.657 86.471C203.75 86.5639 203.86 86.6375 203.981 86.6877C204.103 86.738 204.233 86.7639 204.364 86.7639C204.495 86.7639 204.625 86.738 204.747 86.6877C204.868 86.6375 204.978 86.5639 205.071 86.471C205.164 86.3782 205.237 86.2679 205.288 86.1466C205.338 86.0253 205.364 85.8953 205.364 85.764C205.364 85.6327 205.338 85.5027 205.288 85.3814C205.237 85.2601 205.164 85.1499 205.071 85.057L199.414 79.4L205.071 73.743C205.166 73.6508 205.243 73.5404 205.295 73.4184C205.347 73.2964 205.375 73.1652 205.376 73.0324C205.377 72.8996 205.352 72.7679 205.302 72.6451C205.252 72.5222 205.177 72.4105 205.083 72.3166C204.989 72.2227 204.878 72.1485 204.755 72.0982C204.632 72.0479 204.5 72.0226 204.368 72.0238C204.235 72.0249 204.104 72.0525 203.982 72.1049C203.86 72.1573 203.749 72.2335 203.657 72.329L197.293 78.693ZM197.293 135.591C197.2 135.684 197.126 135.794 197.076 135.915C197.026 136.037 197 136.167 197 136.298C197 136.429 197.026 136.559 197.076 136.681C197.126 136.802 197.2 136.912 197.293 137.005L203.657 143.369C203.75 143.462 203.86 143.535 203.981 143.586C204.103 143.636 204.233 143.662 204.364 143.662C204.495 143.662 204.625 143.636 204.747 143.586C204.868 143.535 204.978 143.462 205.071 143.369C205.164 143.276 205.237 143.166 205.288 143.045C205.338 142.923 205.364 142.793 205.364 142.662C205.364 142.531 205.338 142.401 205.288 142.279C205.237 142.158 205.164 142.048 205.071 141.955L199.414 136.298L205.071 130.641C205.164 130.548 205.237 130.438 205.288 130.317C205.338 130.195 205.364 130.065 205.364 129.934C205.364 129.803 205.338 129.673 205.288 129.551C205.237 129.43 205.164 129.32 205.071 129.227C204.978 129.134 204.868 129.061 204.747 129.01C204.625 128.96 204.495 128.934 204.364 128.934C204.233 128.934 204.103 128.96 203.981 129.01C203.86 129.061 203.75 129.134 203.657 129.227L197.293 135.591ZM197.293 189.993C197.2 190.086 197.126 190.196 197.076 190.317C197.026 190.439 197 190.569 197 190.7C197 190.831 197.026 190.961 197.076 191.083C197.126 191.204 197.2 191.314 197.293 191.407L203.657 197.771C203.75 197.864 203.86 197.938 203.981 197.988C204.103 198.038 204.233 198.064 204.364 198.064C204.495 198.064 204.625 198.038 204.747 197.988C204.868 197.938 204.978 197.864 205.071 197.771C205.164 197.678 205.237 197.568 205.288 197.447C205.338 197.325 205.364 197.195 205.364 197.064C205.364 196.933 205.338 196.803 205.288 196.681C205.237 196.56 205.164 196.45 205.071 196.357L199.414 190.7L205.071 185.043C205.164 184.95 205.237 184.84 205.288 184.719C205.338 184.597 205.364 184.467 205.364 184.336C205.364 184.205 205.338 184.075 205.288 183.953C205.237 183.832 205.164 183.722 205.071 183.629C204.978 183.536 204.868 183.463 204.747 183.412C204.625 183.362 204.495 183.336 204.364 183.336C204.233 183.336 204.103 183.362 203.981 183.412C203.86 183.463 203.75 183.536 203.657 183.629L197.293 189.993ZM197.293 245.393C197.2 245.486 197.126 245.596 197.076 245.718C197.026 245.839 197 245.969 197 246.1C197 246.232 197.026 246.362 197.076 246.483C197.126 246.605 197.2 246.715 197.293 246.808L203.657 253.172C203.75 253.265 203.86 253.338 203.982 253.389C204.103 253.439 204.233 253.465 204.364 253.465C204.496 253.465 204.626 253.439 204.747 253.388C204.868 253.338 204.979 253.264 205.071 253.172C205.164 253.079 205.238 252.968 205.288 252.847C205.338 252.726 205.364 252.595 205.364 252.464C205.364 252.333 205.338 252.203 205.288 252.081C205.238 251.96 205.164 251.85 205.071 251.757L199.414 246.101L205.071 240.444C205.164 240.351 205.238 240.241 205.288 240.12C205.338 239.998 205.364 239.868 205.364 239.737C205.364 239.605 205.338 239.475 205.288 239.354C205.238 239.233 205.164 239.122 205.071 239.03C204.979 238.937 204.868 238.863 204.747 238.813C204.626 238.762 204.496 238.736 204.364 238.736C204.233 238.736 204.103 238.762 203.982 238.812C203.86 238.863 203.75 238.936 203.657 239.029L197.293 245.393ZM197.293 301.293C197.2 301.386 197.126 301.496 197.076 301.617C197.026 301.739 197 301.869 197 302C197 302.131 197.026 302.261 197.076 302.383C197.126 302.504 197.2 302.614 197.293 302.707L203.657 309.071C203.75 309.164 203.86 309.238 203.981 309.288C204.103 309.338 204.233 309.364 204.364 309.364C204.495 309.364 204.625 309.338 204.747 309.288C204.868 309.238 204.978 309.164 205.071 309.071C205.164 308.978 205.237 308.868 205.288 308.747C205.338 308.625 205.364 308.495 205.364 308.364C205.364 308.233 205.338 308.103 205.288 307.981C205.237 307.86 205.164 307.75 205.071 307.657L199.414 302L205.071 296.343C205.164 296.25 205.237 296.14 205.288 296.019C205.338 295.897 205.364 295.767 205.364 295.636C205.364 295.505 205.338 295.375 205.288 295.253C205.237 295.132 205.164 295.022 205.071 294.929C204.978 294.836 204.868 294.762 204.747 294.712C204.625 294.662 204.495 294.636 204.364 294.636C204.233 294.636 204.103 294.662 203.981 294.712C203.86 294.762 203.75 294.836 203.657 294.929L197.293 301.293ZM283 78.4H237.751V80.4H283V78.4ZM238.751 79.4V28H236.751V79.4H238.751ZM233.751 23H198V25H233.751V23ZM237.751 78.4H198V80.4H237.751V78.4ZM236.751 79.4V136.298H238.751V79.4H236.751ZM237.751 135.298H198V137.298H237.751V135.298ZM236.751 136.298V190.7H238.751V136.298H236.751ZM237.751 189.7H198V191.7H237.751V189.7ZM236.751 190.7V246.101H238.751V190.7H236.751ZM237.751 245.101H198V247.101H237.751V245.101ZM236.751 246.101V298H238.751V246.101H236.751ZM233.751 301H198V303H233.751V301ZM236.751 298C236.751 298.796 236.435 299.559 235.872 300.121C235.31 300.684 234.547 301 233.751 301V303C235.077 303 236.349 302.473 237.287 301.536C238.224 300.598 238.751 299.326 238.751 298H236.751ZM238.751 28C238.751 26.6739 238.224 25.4022 237.287 24.4645C236.349 23.5268 235.077 23 233.751 23V25C234.547 25 235.31 25.3161 235.872 25.8787C236.435 26.4413 236.751 27.2044 236.751 28H238.751Z" fill="url(#paint0_linear_2482_163)"/>
<path d="M173.609 30.913C177.643 30.913 180.913 27.6429 180.913 23.609C180.913 19.5751 177.643 16.305 173.609 16.305C169.575 16.305 166.305 19.5751 166.305 23.609C166.305 27.6429 169.575 30.913 173.609 30.913Z" fill="#828282"/>
<path fill-rule="evenodd" clip-rule="evenodd" d="M181.965 26.713C182.64 26.356 183.205 25.8216 183.6 25.1674C183.994 24.5131 184.202 23.7638 184.202 23C184.202 22.2362 183.994 21.4868 183.6 20.8326C183.205 20.1783 182.64 19.644 181.965 19.287C182.191 18.5571 182.213 17.7795 182.029 17.0379C181.846 16.2964 181.463 15.619 180.923 15.0787C180.383 14.5385 179.706 14.1558 178.964 13.9721C178.223 13.7883 177.445 13.8104 176.715 14.036C176.359 13.3603 175.824 12.7947 175.17 12.4003C174.516 12.0059 173.766 11.7976 173.002 11.798C172.238 11.7978 171.488 12.0061 170.834 12.4005C170.179 12.7948 169.645 13.3603 169.288 14.036C168.742 13.8673 168.168 13.8118 167.6 13.873C167.031 13.9341 166.482 14.1106 165.984 14.3915C165.487 14.6724 165.052 15.052 164.706 15.5069C164.361 15.9618 164.111 16.4824 163.974 17.037C163.79 17.7784 163.812 18.556 164.037 19.286C163.361 19.6422 162.795 20.1764 162.401 20.8308C162.006 21.4852 161.798 22.2349 161.799 22.999C161.798 23.7632 162.006 24.5131 162.401 25.1676C162.795 25.8222 163.361 26.3566 164.037 26.713C163.812 27.4428 163.79 28.2203 163.973 28.9617C164.157 29.703 164.54 30.3803 165.08 30.9204C165.62 31.4606 166.297 31.8432 167.038 32.0271C167.78 32.211 168.557 32.1891 169.287 31.964C169.644 32.6392 170.179 33.2042 170.833 33.5983C171.487 33.9925 172.237 34.2007 173.001 34.2007C173.764 34.2007 174.514 33.9925 175.168 33.5983C175.822 33.2042 176.357 32.6392 176.714 31.964C177.26 32.1325 177.834 32.1878 178.402 32.1266C178.97 32.0654 179.52 31.8889 180.017 31.608C180.514 31.3271 180.949 30.9476 181.295 30.4928C181.64 30.038 181.89 29.5174 182.027 28.963C182.212 28.2213 182.19 27.4433 181.965 26.713ZM178.401 20.469C178.521 20.3 178.59 20.0996 178.598 19.8923C178.606 19.685 178.554 19.4799 178.447 19.302C178.339 19.1241 178.181 18.9824 177.992 18.8951C177.803 18.8078 177.592 18.7789 177.387 18.812C177.112 18.8559 176.865 19.0069 176.701 19.232L171.825 25.938L169.193 23.306C169.047 23.1556 168.859 23.0523 168.653 23.0094C168.448 22.9664 168.234 22.9858 168.04 23.065C167.911 23.1181 167.794 23.1962 167.696 23.2947C167.597 23.3932 167.519 23.5102 167.466 23.639C167.387 23.8334 167.367 24.0472 167.411 24.2528C167.454 24.4583 167.558 24.6461 167.709 24.792L171.209 28.292C171.316 28.3997 171.445 28.4827 171.588 28.5352C171.73 28.5878 171.883 28.6085 172.034 28.596C172.185 28.5842 172.332 28.5397 172.465 28.4657C172.597 28.3916 172.712 28.2897 172.801 28.167L178.401 20.467V20.469Z" fill="#651190"/>
<path d="M173.609 86.913C177.643 86.913 180.913 83.6429 180.913 79.609C180.913 75.5751 177.643 72.305 173.609 72.305C169.575 72.305 166.305 75.5751 166.305 79.609C166.305 83.6429 169.575 86.913 173.609 86.913Z" fill="#828282"/>
<path fill-rule="evenodd" clip-rule="evenodd" d="M181.965 82.713C182.64 82.3555 183.204 81.821 183.598 81.1668C183.992 80.5126 184.2 79.7635 184.2 79C184.2 78.2365 183.992 77.4874 183.598 76.8332C183.204 76.179 182.64 75.6445 181.965 75.287C182.134 74.7411 182.189 74.1666 182.128 73.5985C182.067 73.0305 181.89 72.4809 181.609 71.9834C181.329 71.4859 180.949 71.051 180.494 70.7053C180.039 70.3596 179.519 70.1104 178.964 69.973C178.223 69.7891 177.445 69.8109 176.715 70.036C176.359 69.3603 175.824 68.7947 175.17 68.4003C174.516 68.0059 173.766 67.7976 173.002 67.798C172.238 67.7978 171.488 68.0061 170.834 68.4005C170.179 68.7948 169.645 69.3603 169.288 70.036C168.742 69.8673 168.168 69.8119 167.6 69.873C167.031 69.9341 166.482 70.1106 165.984 70.3915C165.487 70.6724 165.052 71.052 164.706 71.5069C164.361 71.9618 164.111 72.4824 163.974 73.037C163.79 73.7784 163.812 74.556 164.037 75.286C163.361 75.6424 162.796 76.1766 162.401 76.831C162.007 77.4853 161.799 78.235 161.799 78.999C161.799 79.7631 162.007 80.5128 162.401 81.1673C162.796 81.8218 163.361 82.3562 164.037 82.713C163.812 83.4427 163.79 84.2202 163.973 84.9615C164.157 85.7029 164.54 86.38 165.08 86.92C165.62 87.4601 166.297 87.8427 167.038 88.0266C167.78 88.2106 168.557 88.1889 169.287 87.964C169.643 88.6398 170.178 89.2054 170.832 89.5998C171.486 89.9942 172.236 90.2024 173 90.202C173.764 90.2023 174.514 89.994 175.168 89.5996C175.823 89.2052 176.357 88.6397 176.714 87.964C177.26 88.1326 177.834 88.1881 178.402 88.1269C178.97 88.0658 179.52 87.8893 180.017 87.6084C180.515 87.3274 180.949 86.9479 181.295 86.493C181.641 86.0381 181.89 85.5175 182.027 84.963C182.212 84.2213 182.19 83.4433 181.965 82.713ZM178.401 76.469C178.563 76.2428 178.631 75.9622 178.589 75.687C178.545 75.412 178.394 75.1656 178.169 75.001C177.943 74.8376 177.662 74.7703 177.387 74.8138C177.112 74.8573 176.865 75.008 176.701 75.233L171.825 81.939L169.193 79.307C169.048 79.1553 168.86 79.051 168.654 79.0078C168.448 78.9646 168.234 78.9846 168.04 79.065C167.911 79.1181 167.794 79.1958 167.695 79.294C167.498 79.4944 167.387 79.7646 167.388 80.046C167.389 80.1854 167.418 80.3233 167.473 80.4514C167.528 80.5795 167.608 80.6953 167.709 80.792L171.209 84.292C171.317 84.3991 171.446 84.4817 171.588 84.5342C171.731 84.5867 171.883 84.6077 172.034 84.596C172.185 84.5841 172.332 84.5396 172.465 84.4656C172.597 84.3915 172.712 84.2896 172.801 84.167L178.401 76.467V76.469Z" fill="#651190"/>
<path d="M173.609 142.913C177.643 142.913 180.913 139.643 180.913 135.609C180.913 131.575 177.643 128.305 173.609 128.305C169.575 128.305 166.305 131.575 166.305 135.609C166.305 139.643 169.575 142.913 173.609 142.913Z" fill="#828282"/>
<path fill-rule="evenodd" clip-rule="evenodd" d="M181.965 138.713C182.64 138.356 183.204 137.821 183.598 137.167C183.992 136.513 184.2 135.764 184.2 135C184.2 134.236 183.992 133.487 183.598 132.833C183.204 132.179 182.64 131.644 181.965 131.287C182.19 130.557 182.212 129.78 182.029 129.038C181.845 128.297 181.462 127.62 180.922 127.08C180.382 126.54 179.705 126.158 178.964 125.974C178.222 125.79 177.445 125.811 176.715 126.036C176.358 125.36 175.824 124.795 175.169 124.401C174.515 124.006 173.766 123.797 173.002 123.797C172.237 123.797 171.488 124.006 170.834 124.401C170.179 124.795 169.645 125.36 169.288 126.036C168.558 125.811 167.781 125.789 167.039 125.972C166.298 126.156 165.621 126.539 165.081 127.079C164.541 127.619 164.159 128.296 163.975 129.037C163.791 129.779 163.812 130.556 164.037 131.286C163.361 131.642 162.796 132.177 162.401 132.831C162.007 133.485 161.799 134.235 161.799 134.999C161.799 135.763 162.007 136.513 162.401 137.167C162.796 137.822 163.361 138.356 164.037 138.713C163.812 139.443 163.79 140.22 163.973 140.962C164.157 141.703 164.54 142.38 165.08 142.92C165.62 143.46 166.297 143.843 167.038 144.027C167.78 144.211 168.557 144.189 169.287 143.964C169.643 144.64 170.178 145.205 170.832 145.6C171.486 145.994 172.236 146.202 173 146.202C173.764 146.202 174.514 145.994 175.168 145.6C175.823 145.205 176.357 144.64 176.714 143.964C177.26 144.133 177.834 144.188 178.402 144.127C178.97 144.066 179.52 143.889 180.017 143.608C180.515 143.327 180.949 142.948 181.295 142.493C181.641 142.038 181.89 141.518 182.027 140.963C182.212 140.221 182.19 139.443 181.965 138.713ZM178.401 132.469C178.563 132.243 178.631 131.962 178.589 131.687C178.545 131.412 178.394 131.166 178.169 131.001C177.943 130.838 177.662 130.77 177.387 130.814C177.112 130.857 176.865 131.008 176.701 131.233L171.825 137.939L169.193 135.307C169.048 135.155 168.86 135.051 168.654 135.008C168.448 134.965 168.234 134.985 168.04 135.065C167.911 135.118 167.794 135.196 167.695 135.294C167.498 135.494 167.387 135.765 167.388 136.046C167.389 136.185 167.418 136.323 167.473 136.451C167.528 136.58 167.608 136.695 167.709 136.792L171.209 140.292C171.317 140.399 171.446 140.482 171.588 140.534C171.731 140.587 171.883 140.608 172.034 140.596C172.185 140.584 172.332 140.54 172.465 140.466C172.597 140.392 172.712 140.29 172.801 140.167L178.401 132.467V132.469Z" fill="#651190"/>
<path d="M173.609 198.913C177.643 198.913 180.913 195.643 180.913 191.609C180.913 187.575 177.643 184.305 173.609 184.305C169.575 184.305 166.305 187.575 166.305 191.609C166.305 195.643 169.575 198.913 173.609 198.913Z" fill="#828282"/>
<path fill-rule="evenodd" clip-rule="evenodd" d="M181.965 194.713C182.64 194.356 183.204 193.821 183.598 193.167C183.992 192.513 184.2 191.764 184.2 191C184.2 190.236 183.992 189.487 183.598 188.833C183.204 188.179 182.64 187.644 181.965 187.287C182.19 186.557 182.212 185.78 182.029 185.038C181.845 184.297 181.462 183.62 180.922 183.08C180.382 182.54 179.705 182.158 178.964 181.974C178.222 181.79 177.445 181.811 176.715 182.036C176.358 181.36 175.824 180.795 175.169 180.401C174.515 180.006 173.766 179.797 173.002 179.797C172.237 179.797 171.488 180.006 170.834 180.401C170.179 180.795 169.645 181.36 169.288 182.036C168.558 181.811 167.781 181.789 167.039 181.972C166.298 182.156 165.621 182.539 165.081 183.079C164.541 183.619 164.159 184.296 163.975 185.037C163.791 185.779 163.812 186.556 164.037 187.286C163.361 187.642 162.796 188.177 162.401 188.831C162.007 189.485 161.799 190.235 161.799 190.999C161.799 191.763 162.007 192.513 162.401 193.167C162.796 193.822 163.361 194.356 164.037 194.713C163.812 195.443 163.79 196.22 163.973 196.962C164.157 197.703 164.54 198.38 165.08 198.92C165.62 199.46 166.297 199.843 167.038 200.027C167.78 200.211 168.557 200.189 169.287 199.964C169.643 200.64 170.178 201.205 170.832 201.6C171.486 201.994 172.236 202.202 173 202.202C173.764 202.202 174.514 201.994 175.168 201.6C175.823 201.205 176.357 200.64 176.714 199.964C177.26 200.133 177.834 200.188 178.402 200.127C178.97 200.066 179.52 199.889 180.017 199.608C180.515 199.327 180.949 198.948 181.295 198.493C181.641 198.038 181.89 197.518 182.027 196.963C182.212 196.221 182.19 195.443 181.965 194.713ZM178.401 188.469C178.563 188.243 178.631 187.962 178.589 187.687C178.545 187.412 178.394 187.166 178.169 187.001C177.943 186.838 177.662 186.77 177.387 186.814C177.112 186.857 176.865 187.008 176.701 187.233L171.825 193.939L169.193 191.307C169.048 191.155 168.86 191.051 168.654 191.008C168.448 190.965 168.234 190.985 168.04 191.065C167.911 191.118 167.794 191.196 167.695 191.294C167.498 191.494 167.387 191.765 167.388 192.046C167.389 192.185 167.418 192.323 167.473 192.451C167.528 192.58 167.608 192.695 167.709 192.792L171.209 196.292C171.317 196.399 171.446 196.482 171.588 196.534C171.731 196.587 171.883 196.608 172.034 196.596C172.185 196.584 172.332 196.54 172.465 196.466C172.597 196.392 172.712 196.29 172.801 196.167L178.401 188.467V188.469Z" fill="#651190"/>
<path d="M173.609 254.913C177.643 254.913 180.913 251.643 180.913 247.609C180.913 243.575 177.643 240.305 173.609 240.305C169.575 240.305 166.305 243.575 166.305 247.609C166.305 251.643 169.575 254.913 173.609 254.913Z" fill="#828282"/>
<path fill-rule="evenodd" clip-rule="evenodd" d="M181.965 250.713C182.64 250.356 183.204 249.821 183.598 249.167C183.992 248.513 184.2 247.764 184.2 247C184.2 246.236 183.992 245.487 183.598 244.833C183.204 244.179 182.64 243.644 181.965 243.287C182.19 242.557 182.212 241.78 182.029 241.038C181.845 240.297 181.462 239.62 180.922 239.08C180.382 238.54 179.705 238.158 178.964 237.974C178.222 237.79 177.445 237.811 176.715 238.036C176.358 237.36 175.824 236.795 175.169 236.401C174.515 236.006 173.766 235.797 173.002 235.797C172.237 235.797 171.488 236.006 170.834 236.401C170.179 236.795 169.645 237.36 169.288 238.036C168.558 237.811 167.781 237.789 167.039 237.972C166.298 238.156 165.621 238.539 165.081 239.079C164.541 239.619 164.159 240.296 163.975 241.038C163.791 241.779 163.812 242.556 164.037 243.286C163.361 243.642 162.796 244.177 162.401 244.831C162.007 245.485 161.799 246.235 161.799 246.999C161.799 247.763 162.007 248.513 162.401 249.167C162.796 249.822 163.361 250.356 164.037 250.713C163.812 251.443 163.79 252.22 163.973 252.962C164.157 253.703 164.54 254.38 165.08 254.92C165.62 255.46 166.297 255.843 167.038 256.027C167.78 256.211 168.557 256.189 169.287 255.964C169.643 256.64 170.178 257.205 170.832 257.6C171.486 257.994 172.236 258.202 173 258.202C173.764 258.202 174.514 257.994 175.168 257.6C175.823 257.205 176.357 256.64 176.714 255.964C177.26 256.133 177.834 256.188 178.402 256.127C178.97 256.066 179.52 255.889 180.017 255.608C180.515 255.327 180.949 254.948 181.295 254.493C181.641 254.038 181.89 253.518 182.027 252.963C182.212 252.221 182.19 251.443 181.965 250.713ZM178.401 244.469C178.563 244.243 178.631 243.962 178.589 243.687C178.545 243.412 178.394 243.166 178.169 243.001C177.943 242.838 177.662 242.77 177.387 242.814C177.112 242.857 176.865 243.008 176.701 243.233L171.825 249.939L169.193 247.307C169.048 247.155 168.86 247.051 168.654 247.008C168.448 246.965 168.234 246.985 168.04 247.065C167.911 247.118 167.794 247.196 167.695 247.294C167.498 247.494 167.387 247.765 167.388 248.046C167.389 248.185 167.418 248.323 167.473 248.451C167.528 248.58 167.608 248.695 167.709 248.792L171.209 252.292C171.317 252.399 171.446 252.482 171.588 252.534C171.731 252.587 171.883 252.608 172.034 252.596C172.185 252.584 172.332 252.54 172.465 252.466C172.597 252.392 172.712 252.29 172.801 252.167L178.401 244.467V244.469Z" fill="#651190"/>
<path d="M173.609 310.913C177.643 310.913 180.913 307.643 180.913 303.609C180.913 299.575 177.643 296.305 173.609 296.305C169.575 296.305 166.305 299.575 166.305 303.609C166.305 307.643 169.575 310.913 173.609 310.913Z" fill="#828282"/>
<path fill-rule="evenodd" clip-rule="evenodd" d="M181.965 306.713C182.64 306.356 183.204 305.821 183.598 305.167C183.992 304.513 184.2 303.764 184.2 303C184.2 302.236 183.992 301.487 183.598 300.833C183.204 300.179 182.64 299.644 181.965 299.287C182.19 298.557 182.212 297.78 182.029 297.038C181.845 296.297 181.462 295.62 180.922 295.08C180.382 294.54 179.705 294.158 178.964 293.974C178.222 293.79 177.445 293.811 176.715 294.036C176.358 293.36 175.824 292.795 175.169 292.401C174.515 292.006 173.766 291.797 173.002 291.797C172.237 291.797 171.488 292.006 170.834 292.401C170.179 292.795 169.645 293.36 169.288 294.036C168.558 293.811 167.781 293.789 167.039 293.972C166.298 294.156 165.621 294.539 165.081 295.079C164.541 295.619 164.159 296.296 163.975 297.038C163.791 297.779 163.812 298.556 164.037 299.286C163.361 299.642 162.796 300.177 162.401 300.831C162.007 301.485 161.799 302.235 161.799 302.999C161.799 303.763 162.007 304.513 162.401 305.167C162.796 305.822 163.361 306.356 164.037 306.713C163.812 307.443 163.79 308.22 163.973 308.962C164.157 309.703 164.54 310.38 165.08 310.92C165.62 311.46 166.297 311.843 167.038 312.027C167.78 312.211 168.557 312.189 169.287 311.964C169.643 312.64 170.178 313.205 170.832 313.6C171.486 313.994 172.236 314.202 173 314.202C173.764 314.202 174.514 313.994 175.168 313.6C175.823 313.205 176.357 312.64 176.714 311.964C177.26 312.133 177.834 312.188 178.402 312.127C178.97 312.066 179.52 311.889 180.017 311.608C180.515 311.327 180.949 310.948 181.295 310.493C181.641 310.038 181.89 309.518 182.027 308.963C182.212 308.221 182.19 307.443 181.965 306.713ZM178.401 300.469C178.563 300.243 178.631 299.962 178.589 299.687C178.545 299.412 178.394 299.166 178.169 299.001C177.943 298.838 177.662 298.77 177.387 298.814C177.112 298.857 176.865 299.008 176.701 299.233L171.825 305.939L169.193 303.307C169.048 303.155 168.86 303.051 168.654 303.008C168.448 302.965 168.234 302.985 168.04 303.065C167.911 303.118 167.794 303.196 167.695 303.294C167.498 303.494 167.387 303.765 167.388 304.046C167.389 304.185 167.418 304.323 167.473 304.451C167.528 304.58 167.608 304.695 167.709 304.792L171.209 308.292C171.317 308.399 171.446 308.482 171.588 308.534C171.731 308.587 171.883 308.608 172.034 308.596C172.185 308.584 172.332 308.54 172.465 308.466C172.597 308.392 172.712 308.29 172.801 308.167L178.401 300.467V300.469Z" fill="#651190"/>
<defs>
<linearGradient id="paint0_linear_2482_163" x1="324.866" y1="165.246" x2="198" y2="165.246" gradientUnits="userSpaceOnUse">
<stop stop-color="#828282" stop-opacity="0"/>
<stop offset="1" stop-color="#828282"/>
</linearGradient>
</defs>
</svg>
